# Blender v2.72 (sub 0) OBJ File: 'kitspace1.blend'
# www.blender.org
o Mesh372_Group368_Group_96_1_Model.004
v 0.998381 -1.991006 0.994046
v -0.985903 -1.991006 0.994047
v -0.985904 -1.991006 -0.990238
v 0.998381 -1.991006 -0.990238
v 0.998381 -1.891792 0.994046
v -0.985903 -1.891792 0.994047
v -0.985904 -1.891792 -0.990238
v 0.998381 -1.891792 -0.990238
v -0.480845 -1.010773 0.996246
v 0.516137 -1.010773 0.996246
v 0.516136 -1.990209 -0.991809
v -0.480846 -1.990209 -0.991809
v -0.480845 -1.010773 0.996249
v 0.516137 -1.010773 0.996248
v 0.516137 -1.990209 0.996248
v -0.480845 -1.990209 0.996249
v -0.480846 -1.010773 -0.991810
v 0.516136 -1.010773 -0.991811
v 0.516137 -1.990209 0.996246
v -0.480845 -1.990209 0.996246
v -0.480846 -1.010773 -0.991809
v 0.516136 -1.010773 -0.991809
v -0.381147 -0.910773 0.996246
v 0.416439 -0.910773 0.996246
v -0.381147 -0.910773 0.996249
v 0.416439 -0.910773 0.996248
v -0.381147 -0.910773 -0.991810
v 0.416438 -0.910773 -0.991811
v -0.381147 -0.910773 -0.991809
v 0.416438 -0.910773 -0.991809
v -0.425604 0.989227 0.996577
v 0.460897 0.989227 0.996577
v -0.425604 0.989227 0.996580
v 0.460897 0.989227 0.996579
v -0.425605 0.989227 -0.992141
v 0.460896 0.989227 -0.992142
v -0.425605 0.989227 -0.992140
v 0.460896 0.989227 -0.992140
v -0.460905 1.989226 0.996246
v 0.496198 1.989226 0.996246
v -0.460905 1.989226 0.996249
v 0.496198 1.989226 0.996248
v -0.460906 1.989226 -0.991810
v 0.496197 1.989226 -0.991811
v -0.460906 1.989226 -0.991809
v 0.496197 1.989226 -0.991809
v -0.381147 0.889227 0.996246
v 0.416439 0.889227 0.996246
v -0.381147 0.889227 0.996249
v 0.416439 0.889227 0.996248
v -0.381147 0.889227 -0.991810
v 0.416438 0.889227 -0.991811
v -0.381147 0.889227 -0.991809
v 0.416438 0.889227 -0.991809
v 1.008258 -1.991006 -1.000116
v 1.008259 -1.991006 0.984169
v -0.976026 -1.991006 0.984170
v -0.976026 -1.991006 -1.000115
v 1.008258 -1.891792 -1.000116
v 1.008259 -1.891792 0.984169
v -0.976026 -1.891792 0.984170
v -0.976026 -1.891792 -1.000115
v 1.010458 -1.010773 0.479110
v 1.010458 -1.010773 -0.517872
v -0.977597 -1.990209 -0.517871
v -0.977597 -1.990209 0.479111
v 1.010461 -1.010773 0.479110
v 1.010460 -1.010773 -0.517872
v 1.010460 -1.990209 -0.517871
v 1.010461 -1.990209 0.479111
v -0.977598 -1.010773 0.479111
v -0.977599 -1.010773 -0.517871
v 1.010458 -1.990209 -0.517871
v 1.010458 -1.990209 0.479111
v -0.977597 -1.010773 0.479111
v -0.977597 -1.010773 -0.517871
v 1.010458 -0.910773 0.379412
v 1.010458 -0.910773 -0.418173
v 1.010461 -0.910773 0.379412
v 1.010460 -0.910773 -0.418173
v -0.977598 -0.910773 0.379413
v -0.977599 -0.910773 -0.418173
v -0.977597 -0.910773 0.379413
v -0.977597 -0.910773 -0.418173
v 1.010789 0.989227 0.423870
v 1.010789 0.989227 -0.462631
v 1.010792 0.989227 0.423870
v 1.010791 0.989227 -0.462631
v -0.977930 0.989227 0.423871
v -0.977930 0.989227 -0.462631
v -0.977928 0.989227 0.423871
v -0.977928 0.989227 -0.462631
v 1.010458 1.989226 0.459171
v 1.010458 1.989226 -0.497932
v 1.010461 1.989226 0.459171
v 1.010460 1.989226 -0.497932
v -0.977598 1.989226 0.459171
v -0.977599 1.989226 -0.497931
v -0.977597 1.989226 0.459171
v -0.977597 1.989226 -0.497931
v 1.010458 0.889227 0.379412
v 1.010458 0.889227 -0.418173
v 1.010461 0.889227 0.379412
v 1.010460 0.889227 -0.418173
v -0.977598 0.889227 0.379413
v -0.977599 0.889227 -0.418173
v -0.977597 0.889227 0.379413
v -0.977597 0.889227 -0.418173
vt 0.997477 0.736507
vt 0.988093 0.736507
vt 0.988093 0.501364
vt 0.971522 0.000000
vt 0.980906 0.000000
vt 0.980906 0.235143
vt 0.990290 0.000000
vt 0.990290 0.235143
vt 1.000000 0.500917
vt 0.990616 0.500917
vt 0.990616 0.265774
vt 0.243044 0.500917
vt 0.000000 0.500917
vt 0.000000 0.265774
vt 0.729675 0.500917
vt 0.486631 0.500917
vt 0.486631 0.265774
vt 0.729675 0.265774
vt 0.851790 0.265774
vt 0.851790 0.355399
vt 0.235723 0.736507
vt 0.245181 0.748322
vt 0.245181 0.842838
vt 0.584727 0.674783
vt 0.584727 0.764410
vt 0.462613 0.764410
vt 0.729675 0.629921
vt 0.851790 0.629921
vt 0.851790 0.865511
vt 0.657345 0.764410
vt 0.657345 0.882555
vt 0.564708 0.882555
vt 0.969021 0.501364
vt 0.969021 0.265774
vt 0.981232 0.265774
vt 0.555250 0.870741
vt 0.555250 0.776225
vt 0.564708 0.764410
vt 0.839579 0.364550
vt 0.741887 0.364550
vt 0.729675 0.355399
vt 0.474824 0.665633
vt 0.572516 0.665632
vt 0.971522 0.235590
vt 0.959311 0.235590
vt 0.729675 0.869695
vt 0.824257 0.865511
vt 0.824257 0.978931
vt 0.839579 0.529263
vt 0.845024 0.538416
vt 0.736442 0.538416
vt 0.851790 0.501364
vt 0.852333 0.000000
vt 0.947099 0.000039
vt 0.947099 0.235629
vt 0.849348 0.629921
vt 0.732118 0.629921
vt 0.000000 0.174089
vt 0.000041 0.164715
vt 0.243547 0.164715
vt 1.000000 1.000000
vt 0.000000 1.000000
vt 0.000000 0.000000
vt 0.474824 0.500917
vt 0.572516 0.500917
vt 0.292365 0.500917
vt 0.462613 0.500917
vt 0.462613 0.736507
vt 0.741887 0.529263
vt 0.277336 0.972097
vt 0.277336 0.736507
vt 0.369974 0.736507
vt 0.728744 0.736585
vt 0.719054 0.736546
vt 0.719054 0.500956
vt 0.273558 0.736507
vt 0.273558 0.841560
vt 0.264101 0.836292
vt 0.243546 0.265774
vt 0.245181 0.736507
vt 0.254641 0.741776
vt 0.254641 0.836292
vt 0.851790 0.736954
vt 0.944427 0.736954
vt 0.944427 0.972544
vt 0.216881 0.736507
vt 0.226265 0.736507
vt 0.226265 0.971650
vt 0.999674 0.235143
vt 0.981232 0.500917
vt 0.978709 0.501364
vt 0.730218 0.235143
vt 0.487174 0.235143
vt 0.487174 0.000000
vt 0.243587 0.265774
vt 0.122115 0.865064
vt 0.000000 0.865064
vt 0.000000 0.775439
vt 0.235723 0.748322
vt 0.235723 0.842838
vt 0.584728 0.590544
vt 0.584727 0.500917
vt 0.706842 0.500917
vt 0.852333 0.235590
vt 0.730218 0.235590
vt 0.000000 0.983209
vt 0.092637 0.865064
vt 0.719054 0.500917
vt 0.102095 0.876879
vt 0.102095 0.971395
vt 0.092637 0.983209
vt 0.012211 0.766288
vt 0.109903 0.766288
vt 0.122115 0.775439
vt 0.694631 0.599695
vt 0.596939 0.599695
vt 0.959311 0.000000
vt 0.555250 0.886738
vt 0.649831 0.882555
vt 0.649831 0.995974
vt 0.012212 0.601575
vt 0.006766 0.592423
vt 0.115349 0.592423
vt 0.969021 0.736954
vt 0.122115 0.972137
vt 0.122115 0.736546
vt 0.002442 0.500917
vt 0.119673 0.500917
vt 0.243587 0.174088
vt 0.243627 0.164713
vt 0.487134 0.164713
vt 0.487134 0.000000
vt 0.694631 0.764410
vt 0.596939 0.764410
vt 0.292365 0.736507
vt 0.122115 0.500917
vt 0.109903 0.601575
vt 0.555250 0.764410
vt 0.555250 1.000000
vt 0.462613 1.000000
vt 0.978709 0.736993
vt 0.716299 0.736507
vt 0.716299 0.841560
vt 0.706842 0.836292
vt 0.487133 0.265773
vt 0.264101 0.841560
vt 0.462613 0.972097
vt 0.997477 0.501364
vt 0.971522 0.235143
vt 1.000000 0.265774
vt 0.243044 0.265774
vt 0.235723 0.854652
vt 0.462613 0.674783
vt 0.729675 0.865511
vt 0.981232 0.501364
vt 0.729675 0.974747
vt 0.852333 0.235669
vt 1.000000 0.000000
vt 0.369974 0.972097
vt 0.728744 0.500917
vt 0.264101 0.741776
vt 0.245181 0.841560
vt 0.851790 0.972544
vt 0.216881 0.971650
vt 0.999674 0.000000
vt 0.978709 0.736507
vt 0.730218 0.000000
vt 0.243587 0.500917
vt 0.226265 0.854652
vt 0.706842 0.590544
vt 0.706842 0.736507
vt 0.555250 0.991791
vt 0.216881 0.972176
vt 0.487174 0.174088
vt 0.243627 0.000000
vt 0.706842 0.741776
vt 0.264101 0.736507
vn 0.000000 0.000000 1.000000
vn -1.000000 0.000000 0.000000
vn -0.000000 0.000000 -1.000000
vn 1.000000 0.000000 -0.000000
vn 0.000000 -1.000000 0.000000
vn 0.000000 1.000000 -0.000000
vn 0.708200 0.706000 -0.000000
vn -0.708200 0.706000 0.000000
vn -0.000000 0.000300 -1.000000
vn 0.000000 -0.003300 1.000000
vn 0.999400 -0.035300 -0.000000
vn 0.000000 0.000300 1.000000
vn -0.913800 -0.406200 0.000000
vn 0.913800 -0.406200 -0.000000
vn -0.000000 0.003300 -1.000000
vn -0.999400 -0.035300 0.000000
vn 0.000000 -0.003300 -1.000000
vn -0.000000 0.706000 -0.708200
vn 0.000000 0.706000 0.708200
vn -1.000000 0.000300 0.000000
vn 1.000000 -0.003300 -0.000000
vn -0.000000 -0.035300 -0.999400
vn 1.000000 0.000300 -0.000000
vn 0.000000 -0.406200 0.913800
vn -0.000000 -0.406200 -0.913800
vn -1.000000 0.003300 0.000000
vn 0.000000 -0.035300 0.999400
vn -1.000000 -0.003300 -0.000000
vn 0.116700 0.993200 0.000000
vn -0.919700 -0.392500 0.000000
vn 0.919800 -0.392400 0.000000
vn 0.000000 0.992900 -0.119100
vn 0.000000 -0.404800 0.914400
vn 0.000000 -0.384600 -0.923100
s off
f 6/1/1 2/2/1 1/3/1
f 7/4/2 3/5/2 2/6/2
f 8/5/3 4/7/3 3/8/3
f 5/9/4 1/10/4 4/11/4
f 2/12/5 3/13/5 4/14/5
f 7/15/6 6/16/6 5/17/6
f 16/18/1 15/19/1 14/20/1
f 17/21/3 27/22/3 28/23/3
f 22/24/3 11/25/3 12/26/3
f 12/27/5 11/28/5 15/29/5
f 20/30/1 19/31/1 10/32/1
f 30/33/7 26/34/7 14/35/7
f 24/36/1 23/37/1 9/38/1
f 26/39/1 25/40/1 13/41/1
f 29/42/3 30/43/3 22/24/3
f 25/4/8 29/44/8 17/45/8
f 35/46/9 43/47/9 44/48/9
f 50/49/10 32/50/10 31/51/10
f 41/33/6 42/52/6 46/19/6
f 38/53/11 46/54/11 42/55/11
f 40/56/12 39/57/12 31/51/12
f 37/58/13 53/59/13 49/60/13
f 25/61/2 49/62/2 53/63/2
f 53/64/3 54/65/3 30/43/3
f 30/66/4 54/67/4 50/68/4
f 50/49/1 49/69/1 25/40/1
f 12/70/2 20/71/2 9/72/2
f 32/73/14 48/74/14 54/75/14
f 31/76/15 32/77/15 48/78/15
f 39/79/16 45/14/16 37/58/16
f 38/80/17 54/81/17 51/82/17
f 11/83/4 22/84/4 10/85/4
f 33/63/6 31/63/6 35/63/6
f 60/86/4 56/87/4 55/88/4
f 61/89/1 57/8/1 56/7/1
f 62/10/2 58/90/2 57/35/2
f 59/91/3 55/3/3 58/2/3
f 56/92/5 57/93/5 58/94/5
f 61/95/6 60/17/6 59/16/6
f 70/96/4 69/97/4 68/98/4
f 71/87/2 81/99/2 82/100/2
f 76/101/2 65/102/2 66/103/2
f 65/53/5 69/104/5 70/105/5
f 74/106/4 73/97/4 64/107/4
f 76/103/18 84/108/18 80/74/18
f 78/109/4 77/110/4 63/111/4
f 80/112/4 79/113/4 67/114/4
f 83/115/2 84/116/2 76/101/2
f 79/55/19 83/54/19 71/117/19
f 89/118/20 97/119/20 98/120/20
f 104/121/21 86/122/21 85/123/21
f 95/124/6 96/83/6 100/52/6
f 100/125/22 96/126/22 88/86/22
f 94/127/23 93/128/23 85/123/23
f 91/129/24 107/130/24 103/131/24
f 79/132/1 103/131/1 107/130/1
f 107/133/2 108/134/2 84/116/2
f 84/135/3 108/126/3 104/136/3
f 104/121/4 103/137/4 79/113/4
f 66/138/1 74/139/1 63/140/1
f 86/33/25 102/91/25 108/141/25
f 85/142/26 86/143/26 102/144/26
f 93/145/27 99/95/27 91/129/27
f 92/146/28 108/82/28 105/81/28
f 65/72/3 76/68/3 64/147/3
f 87/63/1 85/63/1 89/63/1
f 5/148/1 6/1/1 1/3/1
f 6/149/2 7/4/2 2/6/2
f 7/6/3 8/5/3 3/8/3
f 8/150/4 5/9/4 4/11/4
f 1/151/5 2/12/5 4/14/5
f 8/18/6 7/15/6 5/17/6
f 13/41/1 16/18/1 14/20/1
f 18/152/3 17/21/3 28/23/3
f 21/153/3 22/24/3 12/26/3
f 16/154/5 12/27/5 15/29/5
f 9/38/1 20/30/1 10/32/1
f 22/155/7 30/33/7 14/35/7
f 10/32/1 24/36/1 9/38/1
f 14/20/1 26/39/1 13/41/1
f 21/153/3 29/42/3 22/24/3
f 9/117/8 25/4/8 17/45/8
f 36/156/9 35/46/9 44/48/9
f 48/49/10 34/50/10 33/51/10
f 48/49/10 33/51/10 47/69/10
f 45/34/6 41/33/6 46/19/6
f 33/51/10 49/69/10 50/49/10
f 34/157/11 38/53/11 42/55/11
f 33/51/29 50/49/29 31/51/29
f 33/51/30 31/51/30 47/69/30
f 32/50/12 40/56/12 31/51/12
f 31/129/13 37/58/13 49/60/13
f 29/158/2 25/61/2 53/63/2
f 29/42/3 53/64/3 30/43/3
f 26/135/4 30/66/4 50/68/4
f 26/39/1 50/49/1 25/40/1
f 21/159/2 12/70/2 9/72/2
f 54/75/31 52/75/31 38/160/31
f 47/161/15 31/76/15 48/78/15
f 38/160/14 32/73/14 54/75/14
f 31/129/16 39/79/16 37/58/16
f 35/162/17 38/80/17 51/82/17
f 19/163/4 11/83/4 10/85/4
f 37/63/4 33/63/4 35/63/4
f 59/164/4 60/86/4 55/88/4
f 60/165/1 61/89/1 56/7/1
f 61/11/2 62/10/2 57/35/2
f 62/166/3 59/91/3 58/2/3
f 55/167/5 56/92/5 58/94/5
f 62/168/6 61/95/6 59/16/6
f 67/114/4 70/96/4 68/98/4
f 72/169/2 71/87/2 82/100/2
f 75/170/2 76/101/2 66/103/2
f 66/167/5 65/53/5 70/105/5
f 63/111/4 74/106/4 64/107/4
f 68/171/18 76/103/18 80/74/18
f 64/107/4 78/109/4 63/111/4
f 68/98/4 80/112/4 67/114/4
f 75/170/2 83/115/2 76/101/2
f 63/45/19 79/55/19 71/117/19
f 90/172/20 89/118/20 98/120/20
f 102/121/21 88/122/21 87/123/21
f 102/121/21 87/123/21 101/137/21
f 99/33/6 95/124/6 100/52/6
f 87/123/21 103/137/21 104/121/21
f 92/173/22 100/125/22 88/86/22
f 87/123/32 104/121/32 85/123/32
f 87/123/33 85/123/33 101/137/33
f 86/122/23 94/127/23 85/123/23
f 85/174/24 91/129/24 103/131/24
f 83/175/1 79/132/1 107/130/1
f 83/115/2 107/133/2 84/116/2
f 80/66/3 84/135/3 104/136/3
f 80/112/4 104/121/4 79/113/4
f 75/26/1 66/138/1 63/140/1
f 108/141/34 106/141/34 92/124/34
f 101/176/26 85/142/26 102/144/26
f 92/124/25 86/33/25 108/141/25
f 85/174/27 93/145/27 91/129/27
f 89/177/28 92/146/28 105/81/28
f 73/159/3 65/72/3 64/147/3
f 91/63/1 87/63/1 89/63/1
