# Blender v2.72 (sub 0) OBJ File: 'kitspace1.blend'
# www.blender.org
o Mesh372_Group368_Group_96_1_Model.002
v -0.976846 -1.991006 0.984169
v -0.976846 -1.991006 -1.000115
v 1.007438 -1.991006 -1.000116
v 1.007439 -1.991006 0.984169
v -0.976846 -1.891792 0.984169
v -0.976846 -1.891792 -1.000115
v 1.007438 -1.891792 -1.000116
v 1.007439 -1.891792 0.984169
v -0.523434 -1.010773 -0.518449
v -0.523434 -1.010773 0.479834
v 1.009009 -1.990209 0.479833
v 1.009009 -1.990209 -0.518211
v -0.523437 -1.010773 -0.517916
v -0.523436 -1.010773 0.480889
v -0.523436 -1.990209 0.480889
v -0.523437 -1.990209 -0.518211
v 1.009011 -1.010773 -0.518449
v 1.009011 -1.010773 0.479693
v -0.523434 -1.990209 0.479834
v -0.523434 -1.990209 -0.518211
v 1.009009 -1.010773 -0.517615
v 1.009009 -1.010773 0.479834
v -0.422168 -0.910773 -0.418214
v -0.422168 -0.910773 0.381191
v -0.423437 -0.910773 -0.418214
v -0.423436 -0.910773 0.379754
v 1.009011 -0.910773 -0.418214
v 1.009011 -0.910773 0.379541
v 1.009009 -0.910773 -0.418214
v 1.009009 -0.910773 0.379753
v -0.523765 0.989227 -0.459712
v -0.523765 0.989227 0.423891
v -0.523768 0.989227 -0.461630
v -0.523768 0.989227 0.423874
v 1.009342 0.989227 -0.462236
v 1.009342 0.989227 0.423863
v 1.009340 0.989227 -0.458601
v 1.009341 0.989227 0.423889
v -0.523301 1.989226 -0.503595
v -0.523434 1.989226 0.459166
v -0.519539 1.989226 -0.503364
v -0.519539 1.989226 0.461809
v 1.009011 1.989226 -0.496128
v 1.009011 1.989226 0.460121
v 1.009142 1.989226 -0.503024
v 1.009009 1.989226 0.460896
v -0.423434 0.889227 -0.418214
v -0.423434 0.889227 0.379754
v -0.423437 0.889227 -0.418214
v -0.423436 0.889227 0.379407
v 1.009011 0.889227 -0.418214
v 1.009011 0.889227 0.379407
v 1.009009 0.889227 -0.418214
v 1.009009 0.889227 0.379753
v 0.459650 -1.010773 -0.518125
v -0.522101 -1.010773 -0.518125
v -0.521540 -1.990209 0.981284
v 0.459651 -1.990209 0.981284
v 0.459650 -1.010773 -0.518128
v -0.522101 -1.010773 -0.518128
v -0.521540 -1.990209 -0.518128
v 0.459650 -1.990209 -0.518128
v 0.459650 -1.010773 0.981285
v -0.522101 -1.010773 0.981285
v -0.521540 -1.990209 -0.518125
v 0.459650 -1.990209 -0.518125
v 0.459650 -1.010773 0.981284
v -0.522101 -1.010773 0.981284
v 0.359957 -0.910773 -0.420022
v -0.422799 -0.910773 -0.420022
v 0.359952 -0.910773 -0.418425
v -0.422403 -0.910773 -0.418425
v 0.359952 -0.910773 0.981285
v -0.422402 -0.910773 0.981285
v 0.359952 -0.910773 0.981284
v -0.422402 -0.910773 0.981284
v 0.457739 0.989227 -0.460641
v -0.522092 0.989227 -0.460641
v 0.456271 0.989227 -0.460644
v -0.522092 0.989227 -0.460644
v 0.457739 0.989227 0.981616
v -0.522091 0.989227 0.981617
v 0.456271 0.989227 0.981615
v -0.522091 0.989227 0.981615
v 0.458825 1.989226 -0.502909
v -0.517392 1.989226 -0.502909
v 0.458825 1.989226 -0.502397
v -0.517392 1.989226 -0.503905
v 0.439711 1.989226 0.981285
v -0.517392 1.989226 0.981285
v 0.458825 1.989226 0.979344
v -0.517392 1.989226 0.981284
v 0.359952 0.889227 -0.418422
v -0.424474 0.889227 -0.418422
v 0.359952 0.889227 -0.418425
v -0.424474 0.889227 -0.418425
v 0.359952 0.889227 0.981285
v -0.424473 0.889227 0.981285
v 0.359952 0.889227 0.981284
v -0.424473 0.889227 0.981284
v -0.523765 0.989227 -0.459157
v 1.009340 0.989227 -0.462532
vt 0.650241 0.648281
vt 0.650241 0.915833
vt 0.639754 0.915833
vt 0.639754 0.648281
vt 0.979026 0.934876
vt 0.979026 0.667324
vt 0.989513 0.667324
vt 0.989513 0.934876
vt 0.968540 0.934876
vt 0.968540 0.667324
vt 1.000000 0.667324
vt 1.000000 0.934876
vt 0.542727 0.000000
vt 0.542727 0.267552
vt 0.271364 0.267552
vt 0.271364 0.000000
vt 0.000000 0.267552
vt 0.000000 0.000000
vt 0.483087 0.855979
vt 0.586612 0.854909
vt 0.586612 0.990408
vt 0.483087 0.990408
vt 0.590795 0.990440
vt 0.590795 0.854909
vt 0.601364 0.869454
vt 0.601364 0.976997
vt 0.000000 0.369623
vt 0.137429 0.267552
vt 0.137348 0.369623
vt 0.680157 0.000000
vt 0.680157 0.206628
vt 0.542727 0.206628
vt 0.995689 0.396016
vt 0.892164 0.395984
vt 0.892164 0.260485
vt 0.995689 0.260485
vt 0.650241 0.460696
vt 0.663875 0.460696
vt 0.663875 0.653841
vt 0.650241 0.667324
vt 0.958208 0.000000
vt 0.972057 0.013443
vt 0.972057 0.120986
vt 0.958208 0.135531
vt 0.772950 0.653841
vt 0.786584 0.667324
vt 0.122709 0.380044
vt 0.013634 0.380044
vt 0.601364 0.854909
vt 0.586612 0.841426
vt 0.586612 0.648281
vt 0.601364 0.648281
vt 0.890109 0.596167
vt 0.890109 0.460696
vt 0.995808 0.461871
vt 0.995808 0.593884
vt 0.985778 0.135810
vt 0.972057 0.121130
vt 0.972057 0.013587
vt 0.985778 0.000000
vt 0.985778 0.135551
vt 0.985778 0.000368
vt 0.271643 0.567629
vt 0.271690 0.773749
vt 0.133987 0.773749
vt 0.134112 0.567647
vt 0.377389 0.854999
vt 0.271690 0.854954
vt 0.271690 0.648852
vt 0.377389 0.648281
vt 0.239685 0.909474
vt 0.133987 0.906641
vt 0.239685 0.773922
vt 0.615981 0.854998
vt 0.601506 0.854964
vt 0.601364 0.661820
vt 0.615981 0.648281
vt 0.271690 0.460696
vt 0.271690 0.267552
vt 0.461947 0.267552
vt 0.461947 0.460696
vt 0.122709 0.567629
vt 0.013634 0.567629
vt 0.652205 0.267552
vt 0.652205 0.460696
vt 0.859465 0.854909
vt 0.859465 0.667324
vt 0.968540 0.854909
vt 0.483087 0.648281
vt 0.483087 0.854909
vt 0.630178 0.648281
vt 0.630178 0.854999
vt 0.616370 0.841497
vt 0.615981 0.648354
vt 0.985778 0.014421
vt 0.999499 0.000000
vt 0.999499 0.135551
vt 0.985778 0.121964
vt 0.483087 0.854998
vt 0.377389 0.854936
vt 0.132571 0.904187
vt 0.122001 0.890189
vt 0.122001 0.782646
vt 0.132571 0.767885
vt 0.650241 0.873952
vt 0.753766 0.667324
vt 0.753766 0.873952
vt 0.639257 0.854999
vt 0.639578 0.648281
vt 0.639316 0.648282
vt 0.639754 0.854999
vt 0.753766 0.867625
vt 0.857291 0.867625
vt 0.857291 0.999924
vt 0.753766 1.000000
vt 0.611934 0.854998
vt 0.611934 0.987373
vt 0.601364 0.973930
vt 0.601364 0.868441
vt 0.271690 0.465558
vt 0.137429 0.567629
vt 0.137429 0.465558
vt 0.814341 0.000000
vt 0.814341 0.200122
vt 0.680157 0.200122
vt 0.480913 0.854999
vt 0.480913 0.987298
vt 0.377389 0.987373
vt 0.786465 0.460696
vt 0.772831 0.460696
vt 0.772831 0.275048
vt 0.786465 0.260574
vt 0.268871 0.906124
vt 0.254410 0.892735
vt 0.254410 0.787191
vt 0.268871 0.773749
vt 0.665839 0.275048
vt 0.652205 0.260574
vt 0.151064 0.455137
vt 0.258056 0.455137
vt 0.931500 0.200122
vt 0.917866 0.185649
vt 0.917866 0.000000
vt 0.931500 0.000000
vt 0.377388 0.987115
vt 0.271690 0.984684
vt 0.271690 0.855632
vt 0.107275 0.768083
vt 0.122000 0.781070
vt 0.122000 0.886838
vt 0.107276 0.900001
vt 0.107276 0.767885
vt 0.000000 0.767623
vt 0.000000 0.567832
vt 0.133504 0.567629
vt 0.133504 0.767885
vt 0.859465 0.867625
vt 0.859465 0.667414
vt 0.965163 0.987172
vt 0.859465 0.986538
vt 0.965163 0.855056
vt 0.944858 0.200211
vt 0.931686 0.200179
vt 0.931500 0.014531
vt 0.944858 0.000000
vt 0.459983 0.648281
vt 0.271690 0.648281
vt 0.459983 0.460696
vt 0.151064 0.267552
vt 0.258339 0.267552
vt 0.461947 0.648281
vt 0.000283 0.955470
vt 0.000000 0.767885
vt 0.107275 0.955470
vt 0.917866 0.200122
vt 0.958208 0.200211
vt 0.944858 0.185693
vt 0.239685 0.905865
vt 0.239685 0.773749
vt 0.254410 0.786912
vt 0.892164 0.460696
vt 0.786465 0.260792
vt 0.619609 0.854999
vt 0.630178 0.868161
vt 0.630178 0.973929
vt 0.619609 0.987114
vt 0.890109 0.660818
vt 0.786585 0.660818
vt 0.786584 0.460696
vt 0.133705 0.567629
vt 0.133705 0.767841
vt 0.133504 0.767840
vn -1.000000 -0.000000 0.000000
vn -0.000000 0.000000 -1.000000
vn 1.000000 0.000000 -0.000000
vn 0.000000 -0.000000 1.000000
vn 0.000000 -1.000000 -0.000000
vn 0.000000 1.000000 -0.000000
vn 0.000300 0.709200 0.705000
vn -0.702600 0.711500 0.000000
vn -0.707100 0.707100 0.000000
vn -0.000000 0.707900 -0.706300
vn 1.000000 0.000300 -0.000000
vn -0.705900 -0.708300 0.000000
vn 0.000300 -0.037400 0.999300
vn -1.000000 0.000400 -0.000100
vn 0.000300 -0.378800 -0.925500
vn -0.000100 0.000100 1.000000
vn 0.000300 0.000200 -1.000000
vn 0.000100 -0.403800 0.914900
vn 0.705900 0.708300 -0.000000
vn 0.000500 -0.044100 -0.999000
vn 1.000000 -0.003300 0.000000
vn 0.000000 -1.000000 -0.000100
vn -0.708200 0.706000 0.000000
vn -0.000000 0.700300 -0.713800
vn -0.000000 0.706100 -0.708200
vn 0.708200 0.706000 -0.000000
vn 0.000000 0.000300 1.000000
vn -0.000000 -0.388900 -0.921300
vn -1.000000 0.004700 0.000000
vn -0.000000 -0.042200 -0.999100
vn 0.717600 -0.696400 0.000400
vn -1.000000 -0.001200 0.000000
vn -0.715600 -0.698500 0.000000
vn 0.000000 0.388900 0.921300
vn 1.000000 -0.001800 0.000500
vn -0.000000 -0.003300 1.000000
vn -1.000000 -0.000600 0.000000
s off
f 5/1/1 6/2/1 2/3/1 1/4/1
f 6/5/2 7/6/2 3/7/2 2/8/2
f 7/6/3 8/5/3 4/9/3 3/10/3
f 8/11/4 5/12/4 1/8/4 4/7/4
f 1/13/5 2/14/5 3/15/5 4/16/5
f 8/17/6 7/18/6 6/16/6 5/15/6
f 13/19/1 16/20/1 15/21/1 14/22/1
f 18/23/3 17/24/3 27/25/3 28/26/3
f 22/27/3 11/17/3 12/28/3 21/29/3
f 12/13/5 11/30/5 15/31/5 16/32/5
f 9/33/1 20/34/1 19/35/1 10/36/1
f 22/37/7 30/38/7 26/39/7 14/40/7
f 10/41/8 24/42/8 23/43/8 9/44/8
f 14/40/9 26/39/9 25/45/9 13/46/9
f 21/29/3 29/47/3 30/48/3 22/27/3
f 9/49/10 25/50/10 29/51/10 17/52/10
f 36/53/11 35/54/11 43/55/11 44/56/11
f 33/57/12 49/58/12 50/59/12 32/60/12 31/61/12 47/58/12 48/59/12 34/62/12
f 45/63/6 41/64/6 42/65/6 46/66/6
f 38/67/13 46/68/13 42/69/13 34/70/13
f 32/71/14 40/72/14 39/65/14 31/73/14
f 37/74/15 53/75/15 49/76/15 31/77/15
f 29/78/2 25/79/2 49/80/2 53/81/2
f 29/47/3 53/82/3 54/83/3 30/48/3
f 26/81/16 30/80/16 54/84/16 50/85/16
f 26/86/1 50/87/1 49/10/1 25/88/1
f 21/89/17 12/51/17 20/20/17 9/90/17
f 38/91/18 32/92/18 48/93/18 54/94/18 52/94/18
f 47/95/19 31/96/19 32/97/19 48/98/19
f 31/99/20 39/100/20 45/70/20 37/89/20
f 38/101/21 54/102/21 51/103/21 35/104/21
f 19/105/4 11/40/4 22/106/4 10/107/4
f 37/108/22 33/109/22 31/110/22 35/111/22
f 59/112/2 62/113/2 61/114/2 60/115/2
f 64/116/4 63/117/4 73/118/4 74/119/4
f 68/120/4 57/63/4 58/121/4 67/122/4
f 58/30/5 57/123/5 61/124/5 62/125/5
f 55/67/2 66/126/2 65/127/2 56/128/2
f 68/129/23 76/130/23 72/131/23 60/132/23
f 56/133/24 70/134/24 69/135/24 55/136/24
f 60/132/25 72/131/25 71/137/25 59/138/25
f 67/122/4 75/139/4 76/140/4 68/120/4
f 55/141/26 71/142/26 75/143/26 63/144/26
f 82/67/27 81/145/27 89/146/27 90/147/27
f 79/148/28 95/149/28 96/150/28 78/151/28 77/152/28 93/149/28 94/150/28 80/151/28
f 91/153/6 87/154/6 88/155/6 92/156/6
f 84/157/29 92/112/29 88/106/29 80/158/29
f 78/159/30 86/160/30 85/86/30 77/161/30
f 83/162/31 99/163/31 95/164/31 77/165/31
f 75/166/3 71/167/3 95/78/3 99/168/3
f 75/139/4 99/169/4 100/170/4 76/140/4
f 72/1/32 76/171/32 100/81/32 96/37/32
f 72/172/2 96/173/2 95/152/2 71/174/2
f 67/175/3 58/124/3 66/123/3 55/143/3
f 84/41/33 78/176/33 94/177/33 100/165/33 98/165/33
f 93/134/34 77/178/34 78/179/34 94/180/34
f 77/181/35 85/129/35 91/182/35 83/35/35
f 84/183/36 100/184/36 97/185/36 81/186/36
f 65/54/37 57/187/37 68/188/37 56/189/37
f 83/190/5 79/191/5 77/192/5 81/155/5
l 101 102
