# Blender v2.72 (sub 0) OBJ File: 'kitspace1.blend'
# www.blender.org
o Mesh372_Group368_Group_96_1_Model.000
v 1.008259 -1.991006 -1.000115
v 1.008258 -1.991006 0.984169
v -0.976026 -1.991006 0.984169
v -0.976026 -1.991006 -1.000116
v 1.008259 -1.891792 -1.000115
v 1.008258 -1.891792 0.984169
v -0.976026 -1.891792 0.984169
v -0.976026 -1.891792 -1.000116
v 1.010458 -1.010773 0.479111
v 1.010458 -1.010773 -0.517871
v -0.977597 -1.990209 -0.517871
v -0.977597 -1.990209 0.479111
v 1.010460 -1.010773 0.479111
v 1.010461 -1.010773 -0.517871
v 1.010461 -1.990209 -0.517871
v 1.010460 -1.990209 0.479111
v -0.977598 -1.010773 0.479111
v -0.977598 -1.010773 -0.517871
v 1.010458 -1.990209 -0.517871
v 1.010458 -1.990209 0.479111
v -0.977597 -1.010773 0.479111
v -0.977597 -1.010773 -0.517871
v 1.010458 -0.910773 0.379413
v 1.010458 -0.910773 -0.418173
v 1.010460 -0.910773 0.379413
v 1.010461 -0.910773 -0.418173
v -0.977598 -0.910773 0.379412
v -0.977598 -0.910773 -0.418173
v -0.977597 -0.910773 0.379412
v -0.977597 -0.910773 -0.418173
v 1.010789 0.989227 0.423870
v 1.010789 0.989227 -0.462631
v 1.010791 0.989227 0.423870
v 1.010792 0.989227 -0.462631
v -0.977930 0.989227 0.423870
v -0.977930 0.989227 -0.462631
v -0.977928 0.989227 0.423870
v -0.977928 0.989227 -0.462631
v 1.010458 1.989226 0.459171
v 1.010458 1.989226 -0.497932
v 1.010460 1.989226 0.459171
v 1.010461 1.989226 -0.497932
v -0.977598 1.989226 0.459171
v -0.977598 1.989226 -0.497932
v -0.977597 1.989226 0.459171
v -0.977597 1.989226 -0.497932
v 1.010458 0.889227 0.379413
v 1.010458 0.889227 -0.418173
v 1.010460 0.889227 0.379413
v 1.010461 0.889227 -0.418173
v -0.977598 0.889227 0.379412
v -0.977598 0.889227 -0.418173
v -0.977597 0.889227 0.379412
v -0.977597 0.889227 -0.418173
vt 0.391368 0.989333
vt 0.378421 0.989333
vt 0.378421 0.659764
vt 0.417262 0.989333
vt 0.404315 0.989333
vt 0.404315 0.659764
vt 0.391368 0.659764
vt 0.430209 0.989333
vt 0.417262 0.659764
vt 0.670066 0.329569
vt 0.335033 0.329569
vt 0.335033 0.000000
vt 0.000000 0.000000
vt 0.838400 0.000000
vt 0.670066 0.000000
vt 0.670066 0.125730
vt 0.430209 0.659764
vt 0.443258 0.676323
vt 0.443258 0.808794
vt 0.482761 0.573472
vt 0.482761 0.699202
vt 0.651094 0.699202
vt 0.670066 0.841035
vt 0.838400 0.841035
vt 0.838400 0.510840
vt 0.482761 0.864790
vt 0.610575 0.864790
vt 0.968957 0.330196
vt 0.968957 0.660391
vt 0.985791 0.660391
vt 0.623625 0.848231
vt 0.623625 0.715761
vt 0.610575 0.699202
vt 0.686899 0.138567
vt 0.821566 0.138567
vt 0.838400 0.125730
vt 0.634261 0.560635
vt 0.499594 0.560635
vt 0.651094 0.659765
vt 0.651094 0.329569
vt 0.667928 0.329569
vt 0.670066 0.846898
vt 0.800564 0.841035
vt 0.800564 1.000000
vt 0.686899 0.369633
vt 0.679393 0.382470
vt 0.829073 0.382470
vt 0.838400 0.330196
vt 1.000000 0.330196
vt 0.247879 0.659819
vt 0.247879 0.990015
vt 0.673433 0.510840
vt 0.835033 0.510840
vt 0.000000 0.329569
vt 0.012990 0.329624
vt 0.012990 0.659819
vt 0.634261 0.329569
vt 0.499594 0.329569
vt 0.247879 0.329569
vt 0.482761 0.329569
vt 0.482761 0.659764
vt 0.821566 0.369633
vt 0.966206 0.990696
vt 0.966206 0.660501
vt 0.838400 0.660501
vt 0.985791 0.660501
vt 0.998900 0.660446
vt 0.998900 0.330251
vt 0.838400 0.330251
vt 0.838400 0.660446
vt 0.968957 0.660501
vt 0.443258 0.799619
vt 0.443258 0.667148
vt 0.456308 0.659764
vt 0.000000 0.990069
vt 0.127811 0.990069
vt 0.127811 0.659874
vt 0.430209 0.825353
vt 0.651094 0.573472
vt 0.670066 0.510840
vt 0.985791 0.330196
vt 0.667928 0.659764
vt 0.670066 0.994137
vt 1.000000 0.000000
vt 0.378421 0.990070
vt 0.000000 0.659874
vt 0.838400 0.990696
vt 0.456308 0.807003
vn 1.000000 0.000000 0.000000
vn -0.000000 0.000000 1.000000
vn -1.000000 0.000000 -0.000000
vn 0.000000 0.000000 -1.000000
vn 0.000000 -1.000000 -0.000000
vn 0.000000 1.000000 -0.000000
vn 0.000000 0.706000 -0.708200
vn -0.000000 0.706000 0.708200
vn -1.000000 0.000300 -0.000000
vn 1.000000 -0.003300 0.000000
vn 0.000000 -0.035300 -0.999400
vn 1.000000 0.000300 0.000000
vn -0.000000 -0.406200 0.913800
vn 0.000000 -0.406200 -0.913800
vn -1.000000 0.003300 -0.000000
vn -0.000000 -0.035300 0.999400
vn -1.000000 -0.003300 -0.000000
vn 0.000000 0.992900 -0.119100
vn 0.000000 -0.404800 0.914400
vn 0.000000 -0.384600 -0.923100
s off
f 6/1/1 2/2/1 1/3/1
f 7/4/2 3/5/2 2/6/2
f 8/5/3 4/1/3 3/7/3
f 5/8/4 1/4/4 4/9/4
f 2/10/5 3/11/5 4/12/5
f 7/13/6 6/12/6 5/11/6
f 16/14/1 15/15/1 14/16/1
f 17/17/3 27/18/3 28/19/3
f 22/20/3 11/21/3 12/22/3
f 12/23/5 11/24/5 15/25/5
f 20/21/1 19/26/1 10/27/1
f 30/28/7 26/29/7 14/30/7
f 24/31/1 23/32/1 9/33/1
f 26/34/1 25/35/1 13/36/1
f 29/37/3 30/38/3 22/20/3
f 25/39/8 29/40/8 17/41/8
f 35/42/9 43/43/9 44/44/9
f 50/45/10 32/46/10 31/47/10
f 45/14/6 41/48/6 42/49/6
f 38/3/11 46/50/11 42/51/11
f 40/52/12 39/53/12 31/47/12
f 37/54/13 53/55/13 49/56/13
f 25/50/2 49/56/2 53/55/2
f 53/57/3 54/58/3 30/38/3
f 30/59/4 54/60/4 50/61/4
f 50/45/1 49/62/1 25/35/1
f 12/63/2 20/64/2 9/65/2
f 32/66/14 48/67/14 54/68/14
f 31/47/15 32/46/15 48/45/15
f 39/69/16 45/70/16 37/71/16
f 54/72/17 51/73/17 35/74/17
f 11/75/4 22/76/4 10/77/4
f 33/13/2 31/13/2 35/13/2
f 5/7/1 6/1/1 1/3/1
f 6/9/2 7/4/2 2/6/2
f 7/6/3 8/5/3 3/7/3
f 8/17/4 5/8/4 4/9/4
f 1/15/5 2/10/5 4/12/5
f 8/54/6 7/13/6 5/11/6
f 13/36/1 16/14/1 14/16/1
f 18/78/3 17/17/3 28/19/3
f 21/79/3 22/20/3 12/22/3
f 16/80/5 12/23/5 15/25/5
f 9/33/1 20/21/1 10/27/1
f 22/81/7 30/28/7 14/30/7
f 10/27/1 24/31/1 9/33/1
f 14/16/1 26/34/1 13/36/1
f 21/79/3 29/37/3 22/20/3
f 9/82/8 25/39/8 17/41/8
f 36/83/9 35/42/9 44/44/9
f 48/45/10 34/46/10 33/47/10
f 48/45/10 33/47/10 47/62/10
f 46/84/6 45/14/6 42/49/6
f 33/47/10 49/62/10 50/45/10
f 34/85/11 38/3/11 42/51/11
f 33/47/18 50/45/18 31/47/18
f 33/47/19 31/47/19 47/62/19
f 32/46/12 40/52/12 31/47/12
f 31/86/13 37/54/13 49/56/13
f 29/59/2 25/50/2 53/55/2
f 29/37/3 53/57/3 30/38/3
f 26/50/4 30/59/4 50/61/4
f 26/34/1 50/45/1 25/35/1
f 21/87/2 12/63/2 9/65/2
f 54/68/20 52/68/20 38/81/20
f 47/62/15 31/47/15 48/45/15
f 38/81/14 32/66/14 54/68/14
f 31/28/16 39/69/16 37/71/16
f 38/88/17 54/72/17 35/74/17
f 19/86/4 11/75/4 10/77/4
f 37/13/4 33/13/4 35/13/4
