# Blender v2.72 (sub 0) OBJ File: 'kitspace1.blend'
# www.blender.org
o Mesh372_Group368_Group_96_1_Model.000
v -0.985904 0.008994 -1.009993
v 0.998381 0.008994 -1.009993
v 0.998381 0.008994 0.974292
v -0.985904 0.008994 0.974292
v -0.985904 0.108208 -1.009993
v 0.998381 0.108208 -1.009993
v 0.998381 0.108208 0.974292
v -0.985904 0.108208 0.974292
v -0.503659 0.009791 0.975863
v 0.493323 0.009791 0.975863
v -0.503659 0.009791 -1.012195
v 0.493323 0.009791 -1.012195
vt 0.391368 0.989333
vt 0.378421 0.989333
vt 0.378421 0.659764
vt 0.417262 0.989333
vt 0.404315 0.989333
vt 0.404315 0.659764
vt 0.391368 0.659764
vt 0.430209 0.989333
vt 0.417262 0.659764
vt 0.670066 0.329569
vt 0.335033 0.329569
vt 0.335033 0.000000
vt 0.000000 0.000000
vt 0.838400 0.841035
vt 0.838400 0.510840
vt 0.670066 0.510840
vt 0.430209 0.659764
vt 0.670066 0.000000
vt 0.000000 0.329569
vt 0.670066 0.841035
vn 0.000000 0.000000 -1.000000
vn 1.000000 0.000000 0.000000
vn 0.000000 0.000000 1.000000
vn -1.000000 0.000000 0.000000
vn 0.000000 -1.000000 0.000000
vn -0.000000 1.000000 -0.000000
s off
f 6/1/1 2/2/1 1/3/1
f 7/4/2 3/5/2 2/6/2
f 8/5/3 4/1/3 3/7/3
f 5/8/4 1/4/4 4/9/4
f 2/10/5 3/11/5 4/12/5
f 7/13/6 6/12/6 5/11/6
f 9/14/5 11/15/5 12/16/5
f 5/7/1 6/1/1 1/3/1
f 6/9/2 7/4/2 2/6/2
f 7/6/3 8/5/3 3/7/3
f 8/17/4 5/8/4 4/9/4
f 1/18/5 2/10/5 4/12/5
f 8/19/6 7/13/6 5/11/6
f 10/20/5 9/14/5 12/16/5
