# Blender v2.72 (sub 0) OBJ File: 'kitspace1.blend'
# www.blender.org
o Cube.001
v 0.990543 -2.013829 1.010804
v -1.013146 -2.013829 1.010803
v -1.013146 -2.013829 -0.992886
v 0.990543 -2.013829 -0.992886
v 0.990543 -1.913645 1.010804
v -1.013146 -1.913645 1.010803
v -1.013146 -1.913645 -0.992886
v 0.990543 -1.913645 -0.992886
v -0.503150 -2.003785 -0.661311
v -0.503150 -1.985198 -0.661311
v 0.503583 -2.003785 -0.661311
v -0.503150 -0.155782 1.012813
v 0.503582 -0.155782 1.012813
v -0.503150 -0.155782 -0.995894
v -0.503148 1.575800 -0.995894
v 0.503583 1.575800 -0.995894
v 0.503582 -0.155782 -0.995894
v -0.503149 0.987127 0.677308
v -0.503149 0.987127 0.579721
v 0.503583 0.987127 0.579721
v 0.503583 0.987127 0.677308
v -0.503149 -0.155782 1.012813
v -0.503150 -2.011407 1.012813
v 0.503582 -2.011407 1.012813
v 0.503583 -0.155782 1.012813
v -0.503150 -2.011407 0.677308
v -0.503150 -2.011407 -0.661025
v 0.503582 -2.011407 -0.661025
v 0.503582 -2.011407 0.677308
v -0.503148 1.575800 -0.660103
v -0.503148 1.575800 -0.994687
v 0.503583 1.575800 -0.994687
v 0.503583 1.575800 -0.660103
v 0.503583 1.575800 -0.660102
v -0.503150 -0.155782 -0.661311
v 0.503582 -0.155782 -0.661311
v -0.503150 -2.011407 -0.661311
v 0.503582 -2.011407 -0.661311
v -0.503149 1.575800 0.845523
v -0.503149 1.575800 1.012813
v 0.503583 1.575800 1.012813
v 0.503583 1.575800 0.845523
v -0.503148 1.575800 -0.828603
v 0.503583 1.575800 -0.828602
v -0.503148 0.987127 -0.661025
v -0.503148 1.575800 -0.661025
v 0.503583 1.575800 -0.661025
v 0.503583 0.987127 -0.661025
v -0.503150 -2.011407 0.845523
v -0.503150 -2.011407 0.678230
v 0.503582 -2.011407 0.678230
v 0.503582 -2.011407 0.845523
v -0.503149 -1.902820 -0.563438
v -0.503150 -1.988125 -0.424029
v 0.503583 -1.988125 -0.424029
v 0.503583 -1.902820 -0.563438
v -0.503148 0.987127 -0.563438
v 0.503583 0.987127 -0.563438
v -0.503150 -2.011407 -0.995894
v -0.503150 -0.155782 -0.995894
v 0.503582 -0.155782 -0.995894
v 0.503582 -2.011407 -0.995894
v -0.503150 -0.155782 0.678230
v -0.503149 1.575800 0.678230
v 0.503583 1.575800 0.678230
v -0.503148 1.575800 -0.661311
v -0.503150 -0.155782 -0.661311
v 0.503582 -0.155782 -0.661311
v 0.503583 1.575800 -0.661311
v -0.503148 0.904302 -0.228854
v -0.503148 0.904302 -0.424028
v 0.503583 0.904302 -0.424028
v 0.503583 0.904302 -0.228854
v -0.503149 -0.155782 0.678230
v 0.503583 -0.155782 0.678230
v -0.503149 -1.902820 0.677308
v 0.503583 -1.902820 0.677308
v -0.503149 0.904302 0.440312
v -0.503148 0.904302 0.245138
v 0.503583 0.904302 0.245138
v 0.503583 0.904302 0.440312
v -0.503150 -1.988125 -0.228854
v 0.503583 -1.988125 -0.228854
v -0.503150 -2.011407 0.678228
v 0.503582 -2.011407 0.678228
v -0.503149 -1.902820 -0.661025
v 0.503583 -1.902820 -0.661025
v -0.503149 1.575800 0.677308
v 0.503583 1.575800 0.677308
v -0.503150 -2.011407 -0.661311
v 0.503582 -2.011407 -0.661311
v -0.503149 -1.902820 0.105729
v -0.503150 -1.988125 0.245138
v 0.503583 -1.988125 0.245138
v 0.503583 -1.902820 0.105729
v -0.503148 0.987127 0.105729
v -0.503148 0.987127 -0.089446
v 0.503583 0.987127 -0.089446
v 0.503583 0.987127 0.105729
v -0.503149 1.575800 1.012813
v 0.503583 1.575800 1.012813
v -0.503150 -2.003785 0.678228
v 0.503583 -2.003785 0.678228
v -0.503150 -1.988125 0.440312
v -0.503149 -1.902820 0.579721
v 0.503583 -1.902820 0.579721
v 0.503583 -1.988125 0.440312
v -0.503149 -1.902820 -0.089446
v 0.503583 -1.902820 -0.089446
v 0.503583 1.575800 0.678230
v -0.503150 -1.985198 0.678228
v -0.503149 1.575800 0.678228
v 0.503583 1.575800 0.678228
v -0.503150 -2.011407 -0.828603
v 0.503582 -2.011407 -0.828602
v 0.503583 1.979712 -0.995894
v -0.503148 1.979712 -0.994687
v -0.503149 1.979712 1.012813
v 0.503583 1.979712 1.012813
v 0.503583 1.979712 0.845523
v 0.503583 1.979712 1.012813
vt 0.443048 0.577936
vt 0.457294 0.577936
vt 0.457294 0.866904
vt 0.471541 0.577936
vt 0.471541 0.866904
vt 0.443048 0.866904
vt 0.428802 0.866904
vt 0.428802 0.577936
vt 0.485787 0.866904
vt 0.570522 0.288968
vt 0.285642 0.288968
vt 0.285642 0.000000
vt 0.570324 0.577936
vt 0.285642 0.577936
vt 0.570522 0.999960
vt 0.570522 0.985889
vt 0.713681 0.985889
vt 0.143159 0.565717
vt 0.143159 0.758696
vt 0.000000 0.758696
vt 1.000000 0.283363
vt 0.856841 0.283363
vt 0.856841 0.263787
vt 0.570522 0.806982
vt 0.713681 0.806982
vt 0.713681 0.821053
vt 0.532111 0.723125
vt 0.532111 0.577936
vt 0.547553 0.577936
vt 0.570522 0.937866
vt 0.713681 0.937866
vt 0.713681 0.966009
vt 1.000000 0.311487
vt 0.856841 0.311487
vt 0.570522 0.966009
vt 0.516670 0.723125
vt 0.516670 0.577936
vt 1.000000 0.379786
vt 0.856841 0.379786
vt 0.856841 0.360209
vt 0.570522 0.889399
vt 0.713681 0.889399
vt 0.713681 0.917542
vt 1.000000 0.407909
vt 1.000000 0.428508
vt 0.856841 0.428508
vt 0.570522 0.821053
vt 0.713681 0.841377
vt 1.000000 0.332086
vt 0.856841 0.332086
vt 0.570522 0.917542
vt 1.000000 0.263787
vt 0.856841 0.249725
vt 1.000000 0.360209
vt 1.000000 0.442570
vt 0.856841 0.442570
vt 0.856841 0.407909
vt 0.128989 0.432442
vt 0.061587 0.432442
vt 0.081411 0.420498
vt 0.224146 0.432442
vt 0.156743 0.432442
vt 0.176568 0.420498
vt 0.547553 0.666400
vt 0.559330 0.646294
vt 0.559330 0.714653
vt 0.547553 0.598041
vt 0.559330 0.577936
vt 0.497918 0.736810
vt 0.500145 0.771122
vt 0.485787 0.770989
vt 0.485787 0.660409
vt 0.497918 0.640304
vt 0.497918 0.708662
vt 0.497918 0.612157
vt 0.485787 0.592051
vt 0.485787 0.577977
vt 0.501229 0.578069
vt 0.515586 0.577936
vt 0.513359 0.612248
vt 0.513359 0.640396
vt 0.513359 0.708754
vt 0.501229 0.688649
vt 0.513359 0.736901
vt 0.515586 0.771122
vt 0.501229 0.771081
vt 0.143159 1.000000
vt 0.000000 1.000000
vt 0.516670 0.771081
vt 0.501229 0.577936
vt 0.308751 0.521157
vt 0.454454 0.535137
vt 0.453922 0.679169
vt 0.975828 0.959910
vt 0.952038 0.959910
vt 0.952038 0.692295
vt 0.274937 0.533000
vt 0.274897 0.518439
vt 0.274937 0.517340
vt 0.928249 0.442570
vt 0.904460 0.692295
vt 0.570522 0.000000
vt 0.713681 0.000000
vt 0.713681 0.249725
vt 0.570522 0.869520
vt 0.570522 0.841377
vt 0.713681 0.833565
vt 0.713681 0.416782
vt 0.856841 0.416782
vt 0.856840 0.000000
vt 0.000000 0.517340
vt 0.143159 0.517340
vt 0.143159 0.806981
vt 0.274897 0.662529
vt 0.247167 0.662529
vt 0.226870 0.517340
vt 0.247167 0.517340
vt 0.226870 0.710218
vt 0.143159 0.710351
vt 0.308751 0.673262
vt 0.904460 0.959910
vt 0.856841 0.944250
vt 0.428802 0.845551
vt 0.285642 0.845551
vt 1.000000 0.249725
vt 0.285642 0.517340
vt 0.285642 0.267614
vt 0.238023 0.432442
vt 0.298985 0.292641
vt 0.306850 0.724950
vt 0.450009 0.724776
vt 0.450009 0.595465
vt 0.416950 0.668264
vt 0.453082 0.530651
vt 0.298985 0.444747
vt 0.485787 0.577936
vt 0.570324 0.288968
vt 0.713681 0.999960
vt 0.000000 0.565717
vt 0.547553 0.723125
vt 0.109165 0.420498
vt 0.204322 0.420498
vt 0.547553 0.694547
vt 0.547553 0.626189
vt 0.485787 0.756915
vt 0.485787 0.688557
vt 0.500145 0.577936
vt 0.501229 0.592143
vt 0.501229 0.660501
vt 0.501229 0.757007
vt 0.000000 0.806981
vt 0.143159 0.807114
vt 0.000000 0.807114
vt 0.516670 0.578069
vt 0.497502 0.771122
vt 0.999617 0.692295
vt 0.999617 0.959910
vt 0.497502 0.577936
vt 0.975828 0.442570
vt 0.999617 0.442570
vt 0.952038 0.442570
vt 0.904460 0.442570
vt 0.928249 0.959910
vt 0.713681 0.517340
vt 0.570522 0.517340
vt 0.570522 0.249725
vt 0.713681 0.869520
vt 0.856840 0.833565
vt 0.226870 0.662529
vt 0.856841 0.527467
vt 1.000000 0.000000
vt 0.238023 0.015660
vt 0.047710 0.432442
vt 0.306850 0.595465
vn -0.000000 0.000000 1.000000
vn -1.000000 0.000000 -0.000000
vn 0.000000 0.000000 -1.000000
vn 1.000000 0.000000 0.000000
vn 0.000000 -1.000000 -0.000000
vn 0.000000 1.000000 0.000000
vn -0.000000 0.853000 0.521900
vn -0.000000 -0.859700 0.510800
vn 0.000000 0.853000 -0.521900
vn 0.000000 -0.859700 -0.510800
vn 1.000000 -0.000100 0.000000
vn -0.001200 0.000000 -1.000000
vn -1.000000 0.000000 -0.003100
vn 0.000000 0.859700 -0.510800
vn 0.000000 0.089500 0.996000
vn -0.046500 -0.969600 0.240000
s off
f 6/1/1 2/2/1 1/3/1
f 7/2/2 3/4/2 2/5/2
f 8/6/3 4/7/3 3/8/3
f 5/9/4 1/5/4 4/4/4
f 2/10/5 3/11/5 4/12/5
f 7/13/6 6/14/6 5/11/6
f 18/15/5 19/16/5 20/17/5
f 26/18/5 27/19/5 28/20/5
f 54/21/7 55/22/7 56/23/7
f 45/24/5 48/25/5 58/26/5
f 26/27/1 29/28/1 77/29/1
f 79/30/5 80/31/5 81/32/5
f 82/33/6 83/34/6 55/22/6
f 78/35/8 81/32/8 20/17/8
f 27/27/3 86/36/3 87/37/3
f 93/38/7 94/39/7 95/40/7
f 97/41/5 98/42/5 99/43/5
f 104/44/9 105/45/9 106/46/9
f 57/47/10 58/26/10 72/48/10
f 82/33/9 108/49/9 109/50/9
f 96/51/10 99/43/10 80/31/10
f 53/52/6 56/23/6 87/53/6
f 92/54/6 95/40/6 109/50/6
f 76/55/6 77/56/6 106/46/6
f 104/44/6 107/57/6 94/39/6
f 99/58/4 20/59/4 81/60/4
f 58/61/4 98/62/4 73/63/4
f 78/64/2 19/65/2 96/66/2
f 70/67/2 97/68/2 57/65/2
f 104/69/2 102/70/2 76/71/2
f 108/72/2 82/73/2 93/74/2
f 54/75/2 53/76/2 86/77/2
f 77/78/4 103/79/4 107/80/4
f 94/81/4 83/82/4 109/83/4
f 55/84/4 11/85/4 87/86/4
f 38/87/6 37/88/6 27/88/6
f 28/89/11 11/85/11 55/84/11
f 93/74/2 82/73/2 37/90/2
f 31/91/12 117/92/12 116/93/12
f 52/94/4 51/95/4 75/96/4
f 45/24/6 57/47/6 97/41/6
f 87/97/13 11/98/13 28/99/13
f 39/100/2 74/96/2 12/101/2
f 15/102/3 16/103/3 61/104/3
f 97/41/4 70/105/4 71/106/4
f 76/107/3 18/108/3 21/109/3
f 45/108/1 86/103/1 87/110/1
f 24/111/5 23/112/5 26/18/5
f 91/20/5 90/19/5 59/113/5
f 26/18/5 90/19/5 91/20/5
f 72/99/6 71/114/6 70/115/6
f 98/116/14 73/117/14 70/115/14
f 88/116/2 30/118/2 45/119/2
f 16/93/4 116/93/4 121/120/4
f 60/101/2 59/121/2 86/122/2
f 25/123/1 22/124/1 23/14/1
f 41/125/1 100/53/1 12/110/1
f 99/58/4 98/62/4 16/126/4
f 61/127/4 16/126/4 48/128/4
f 120/129/1 119/129/1 121/129/1
f 116/130/6 117/131/6 118/132/6
f 40/91/2 118/133/2 117/91/2
f 101/120/1 121/134/1 118/91/1
f 101/135/1 121/129/1 119/129/1
f 5/6/1 6/1/1 1/3/1
f 6/3/2 7/2/2 2/5/2
f 7/1/3 8/6/3 3/8/3
f 8/136/4 5/9/4 4/4/4
f 1/102/5 2/10/5 4/12/5
f 8/137/6 7/13/6 5/11/6
f 21/138/5 18/15/5 20/17/5
f 29/139/5 26/18/5 28/20/5
f 53/52/7 54/21/7 56/23/7
f 57/47/5 45/24/5 58/26/5
f 76/140/1 26/27/1 77/29/1
f 78/35/5 79/30/5 81/32/5
f 54/21/6 82/33/6 55/22/6
f 19/16/8 78/35/8 20/17/8
f 28/28/3 27/27/3 87/37/3
f 92/54/7 93/38/7 95/40/7
f 96/51/5 97/41/5 99/43/5
f 107/57/9 104/44/9 106/46/9
f 71/106/10 57/47/10 72/48/10
f 83/34/9 82/33/9 109/50/9
f 79/30/10 96/51/10 80/31/10
f 86/125/6 53/52/6 87/53/6
f 108/49/6 92/54/6 109/50/6
f 105/45/6 76/55/6 106/46/6
f 93/38/6 104/44/6 94/39/6
f 80/141/4 99/58/4 81/60/4
f 72/142/4 58/61/4 73/63/4
f 79/143/2 78/64/2 96/66/2
f 71/144/2 70/67/2 57/65/2
f 105/145/2 104/69/2 76/71/2
f 92/146/2 108/72/2 93/74/2
f 9/147/2 54/75/2 86/77/2
f 106/148/4 77/78/4 107/80/4
f 95/149/4 94/81/4 109/83/4
f 56/150/4 55/84/4 87/86/4
f 38/87/6 84/151/6 28/87/6
f 84/151/6 85/113/6 29/152/6
f 84/151/6 38/87/6 26/153/6
f 28/89/4 83/82/4 29/154/4
f 103/79/11 29/154/11 107/80/11
f 84/151/6 29/152/6 28/87/6
f 38/87/6 27/88/6 26/153/6
f 83/82/4 28/89/4 55/84/4
f 84/86/1 111/155/1 102/70/1
f 29/154/4 94/81/4 107/80/4
f 25/156/4 24/157/4 52/94/4
f 29/154/4 83/82/4 94/81/4
f 37/90/2 82/73/2 54/75/2
f 9/147/2 37/90/2 54/75/2
f 9/147/1 10/158/1 37/90/1
f 84/86/2 102/70/2 104/69/2
f 84/86/2 93/74/2 37/90/2
f 93/74/2 84/86/2 104/69/2
f 16/91/12 31/91/12 116/93/12
f 42/159/4 101/160/4 25/156/4
f 75/96/4 110/161/4 42/159/4
f 97/41/6 96/51/6 19/16/6
f 52/94/4 75/96/4 25/156/4
f 12/101/1 100/162/1 40/162/1
f 75/96/4 42/159/4 25/156/4
f 97/41/5 19/16/5 18/15/5
f 18/15/5 45/24/5 97/41/5
f 23/121/1 22/101/1 12/101/1
f 49/163/15 74/96/15 63/96/15
f 50/95/2 49/163/2 63/96/2
f 64/161/2 112/161/2 74/96/2
f 64/161/2 74/96/2 39/100/2
f 40/162/2 39/100/2 12/101/2
f 62/164/3 59/165/3 60/166/3
f 73/167/8 98/42/8 97/41/8
f 49/163/2 23/121/2 12/101/2
f 74/96/2 49/163/2 12/101/2
f 61/104/3 62/164/3 60/166/3
f 60/166/3 15/102/3 61/104/3
f 71/106/5 72/48/5 73/167/5
f 77/168/3 76/107/3 21/109/3
f 97/41/16 71/106/16 73/167/16
f 48/109/1 45/108/1 87/110/1
f 29/139/5 24/111/5 26/18/5
f 62/151/5 91/20/5 59/113/5
f 29/139/5 26/18/5 91/20/5
f 73/117/6 72/99/6 70/115/6
f 97/169/14 98/116/14 70/115/14
f 18/112/2 88/116/2 45/119/2
f 101/120/4 16/93/4 121/120/4
f 45/170/2 46/56/2 15/162/2
f 45/170/2 60/101/2 86/122/2
f 13/171/1 41/125/1 12/110/1
f 24/8/1 25/123/1 23/14/1
f 45/170/2 15/162/2 60/101/2
f 99/58/4 101/111/4 20/59/4
f 48/128/4 16/126/4 58/61/4
f 87/172/4 61/127/4 48/128/4
f 16/126/4 98/62/4 58/61/4
f 101/111/4 21/173/4 20/59/4
f 87/172/4 62/12/4 61/127/4
f 101/111/4 99/58/4 16/126/4
f 31/91/2 40/91/2 117/91/2
f 121/174/6 116/130/6 118/132/6
f 40/91/1 101/120/1 118/91/1
f 41/129/1 101/135/1 119/129/1
l 40 41
l 35 90
l 101 113
l 30 31
l 16 44
l 14 15
l 36 91
l 62 115
l 102 103
l 39 100
l 100 112
l 15 43
l 21 89
l 43 66
l 42 65
l 21 110
l 63 64
l 59 114
l 66 67
l 91 115
l 47 89
l 30 112
l 32 33
l 16 17
l 9 11
l 90 114
l 47 48
l 68 69
l 22 100
l 50 51
l 36 47
l 51 29
l 68 48
l 35 27
l 67 86
l 48 34
l 46 64
