# Blender v2.76 (sub 0) OBJ File: 'cesped.blend'
# www.blender.org
o Cube
v -0.255169 -0.155963 0.056100
v -0.117051 1.870433 -0.279587
v -0.023953 -0.068133 -0.004744
v -0.302040 1.884266 -0.249281
v -0.024029 -0.052056 0.030514
v -0.304633 1.889471 -0.284165
v 0.207187 0.035773 -0.030330
v -0.489126 1.902308 -0.247181
v -0.174831 3.835925 0.192207
v -0.358377 3.782525 0.205837
v -0.360495 3.790694 0.171301
v -0.543660 3.735824 0.191145
v -0.682960 5.088396 0.540080
v -0.818877 5.038343 0.548401
v -0.821882 5.048596 0.516978
v -0.956792 4.995109 0.535826
v -0.843734 6.272116 1.299808
vt 0.481260 0.775484
vt 0.276989 0.772259
vt 0.287000 0.643674
vt 0.427905 0.652861
vt 0.622593 0.778881
vt 0.522376 0.613682
vt 0.621813 0.613010
vt 0.146094 0.634481
vt 0.153110 0.508778
vt 0.296772 0.518151
vt 0.757339 0.777953
vt 0.721251 0.612323
vt 0.753771 0.259838
vt 0.753628 0.239032
vt 0.773985 0.218326
vt 0.774129 0.239132
vt 0.086050 0.759802
vt 0.621053 0.451088
vt 0.519670 0.451773
vt 0.543771 0.338391
vt 0.620521 0.337874
vt 0.440434 0.527518
vt 0.722435 0.450387
vt 0.697270 0.337341
vt 0.303604 0.430387
vt 0.412361 0.437478
vt 0.194848 0.423291
vt 0.310755 0.338538
vt 0.619964 0.219387
vn -0.182900 -0.165200 -0.969200
vn 0.021000 0.141300 0.989700
vn 0.014900 0.233200 -0.972300
vn 0.197500 0.165500 0.966200
vn -0.414000 0.827900 -0.378400
vn -0.034900 -0.148700 -0.988300
vn -0.054900 -0.285500 0.956800
vn -0.139300 0.227100 -0.963900
vn 0.173900 -0.224300 0.958900
vn -0.049800 -0.234300 0.970900
vn 0.185100 -0.199600 0.962200
vn -0.135700 0.213900 -0.967400
vn 0.007300 0.265900 -0.964000
vn -0.235800 0.502000 -0.832100
vn -0.084400 0.517100 -0.851800
vn 0.014300 -0.538700 0.842400
vn 0.313400 -0.507800 0.802400
s off
f 7/1/1 5/2/1 4/3/1 2/4/1
f 3/5/2 7/1/2 2/6/2 6/7/2
f 4/3/3 8/8/3 12/9/3 10/10/3
f 1/11/4 3/5/4 6/7/4 8/12/4
f 1/13/5 5/14/5 7/15/5 3/16/5
f 5/2/6 1/17/6 8/8/6 4/3/6
f 11/18/7 9/19/7 13/20/7 15/21/7
f 2/4/8 4/3/8 10/10/8 9/22/8
f 8/12/9 6/7/9 11/18/9 12/23/9
f 6/7/10 2/6/10 9/19/10 11/18/10
f 12/23/11 11/18/11 15/21/11 16/24/11
f 9/22/12 10/10/12 14/25/12 13/26/12
f 10/10/13 12/9/13 16/27/13 14/25/13
f 13/26/14 14/25/14 17/28/14
f 14/25/15 16/27/15 17/28/15
f 15/21/16 13/20/16 17/29/16
f 16/24/17 15/21/17 17/29/17
