# Blender v2.76 (sub 0) OBJ File: 'cesped.blend'
# www.blender.org
o Plane.000_Plane.005
v -0.057692 1.109442 -0.003781
v 0.147179 1.109442 -0.003781
v -0.028424 2.133796 -0.003781
v 0.117912 2.133796 -0.003781
v 0.044744 3.158151 -0.003781
v -0.101593 -0.061248 -0.003781
v 0.191080 -0.061248 -0.003781
vt 0.804710 0.632092
vt 0.189876 0.595152
vt 0.294499 0.320959
vt 0.733667 0.347344
vt 0.530873 0.054681
vt 0.917272 0.959402
vt 0.038936 0.906631
vn 0.000000 0.000000 1.000000
s 1
f 1/1/1 2/2/1 4/3/1 3/4/1
f 3/4/1 4/3/1 5/5/1
f 2/2/1 1/1/1 6/6/1 7/7/1
l 2 3
l 1 7
