# Blender v2.76 (sub 0) OBJ File: 'cesped.blend'
# www.blender.org
o Cube
v -0.271124 -0.095666 0.005358
v -0.227057 1.803586 0.554751
v -0.030148 0.070725 0.031157
v -0.392167 1.628055 0.519624
v -0.031477 0.034724 0.065975
v -0.394395 1.675223 0.492199
v 0.209499 0.201115 0.091774
v -0.559078 1.490664 0.462322
v -0.813200 2.597205 1.270141
v -0.913151 2.354352 1.153300
v -0.929738 2.417340 1.142879
v -1.026705 2.163154 1.027913
v -1.156185 3.012527 1.059149
v -1.057514 2.838021 0.991652
v -1.035859 2.864676 1.013446
v -0.944442 2.681241 0.938648
v -0.894503 4.018062 0.578759
vt 0.481260 0.775484
vt 0.276989 0.772259
vt 0.287000 0.643674
vt 0.427905 0.652861
vt 0.622593 0.778881
vt 0.522376 0.613682
vt 0.621813 0.613010
vt 0.146094 0.634481
vt 0.153110 0.508778
vt 0.296772 0.518151
vt 0.757339 0.777953
vt 0.721251 0.612323
vt 0.753771 0.259838
vt 0.753628 0.239032
vt 0.773985 0.218326
vt 0.774129 0.239132
vt 0.086050 0.759802
vt 0.621053 0.451088
vt 0.519670 0.451773
vt 0.543771 0.338391
vt 0.620521 0.337874
vt 0.440434 0.527518
vt 0.722435 0.450387
vt 0.697270 0.337341
vt 0.303604 0.430387
vt 0.412361 0.437478
vt 0.194848 0.423291
vt 0.310755 0.338538
vt 0.619964 0.219387
vn -0.072800 0.258100 -0.963400
vn -0.097900 -0.298000 0.949500
vn -0.154800 0.577700 -0.801400
vn 0.091300 -0.258100 0.961800
vn -0.490700 0.615000 0.617200
vn 0.085200 0.290300 -0.953100
vn -0.846300 -0.256300 0.467000
vn -0.312600 0.493000 -0.811900
vn 0.332200 -0.468400 0.818700
vn 0.130300 -0.604100 0.786200
vn -0.998300 -0.011900 0.056600
vn 0.821200 0.228400 -0.522900
vn 0.995700 0.041000 -0.082700
vn 0.716000 0.140400 0.683800
vn 0.614300 0.183600 0.767400
vn -0.575700 -0.225600 -0.785900
vn -0.776800 -0.136500 -0.614700
s off
f 7/1/1 5/2/1 4/3/1 2/4/1
f 3/5/2 7/1/2 2/6/2 6/7/2
f 4/3/3 8/8/3 12/9/3 10/10/3
f 1/11/4 3/5/4 6/7/4 8/12/4
f 1/13/5 5/14/5 7/15/5 3/16/5
f 5/2/6 1/17/6 8/8/6 4/3/6
f 11/18/7 9/19/7 13/20/7 15/21/7
f 2/4/8 4/3/8 10/10/8 9/22/8
f 8/12/9 6/7/9 11/18/9 12/23/9
f 6/7/10 2/6/10 9/19/10 11/18/10
f 12/23/11 11/18/11 15/21/11 16/24/11
f 9/22/12 10/10/12 14/25/12 13/26/12
f 10/10/13 12/9/13 16/27/13 14/25/13
f 13/26/14 14/25/14 17/28/14
f 14/25/15 16/27/15 17/28/15
f 15/21/16 13/20/16 17/29/16
f 16/24/17 15/21/17 17/29/17
