# Blender v2.76 (sub 0) OBJ File: 'cesped.blend'
# www.blender.org
o Cube
v 0.139743 -0.158479 -0.244229
v 0.472480 1.841992 0.032239
v 0.055691 -0.070943 -0.020288
v 0.561333 1.821604 -0.132140
v 0.027773 -0.053667 -0.040872
v 0.590482 1.831041 -0.114478
v -0.056279 0.033869 0.183069
v 0.673755 1.808846 -0.282238
v 0.051197 3.534775 -0.995873
v 0.161190 3.436171 -1.117960
v 0.188196 3.455083 -1.104659
v 0.293330 3.353076 -1.229139
v -0.054721 4.375964 -2.128900
v 0.032123 4.278353 -2.191971
v 0.057078 4.297699 -2.181745
v 0.135562 4.193607 -2.248243
v 0.043751 4.815972 -3.515668
vt 0.481260 0.775484
vt 0.276989 0.772259
vt 0.287000 0.643674
vt 0.427905 0.652861
vt 0.622593 0.778881
vt 0.522376 0.613682
vt 0.621813 0.613010
vt 0.146094 0.634481
vt 0.153110 0.508778
vt 0.296772 0.518151
vt 0.757339 0.777953
vt 0.721251 0.612323
vt 0.753771 0.259838
vt 0.753628 0.239032
vt 0.773985 0.218326
vt 0.774129 0.239132
vt 0.086050 0.759802
vt 0.621053 0.451088
vt 0.519670 0.451773
vt 0.543771 0.338391
vt 0.620521 0.337874
vt 0.440434 0.527518
vt 0.722435 0.450387
vt 0.697270 0.337341
vt 0.303604 0.430387
vt 0.412361 0.437478
vt 0.194848 0.423291
vt 0.310755 0.338538
vt 0.619964 0.219387
vn 0.866800 -0.220600 0.447300
vn -0.791100 0.188300 -0.582000
vn 0.720800 0.482600 0.497600
vn -0.871400 0.225800 -0.435500
vn 0.576200 0.811100 -0.100800
vn 0.795200 -0.201700 0.571900
vn -0.663200 -0.627900 -0.407300
vn 0.814000 0.435900 0.383900
vn -0.832600 -0.423800 -0.356700
vn -0.697500 -0.490900 -0.522000
vn -0.830200 -0.484900 -0.274900
vn 0.801000 0.514000 0.306800
vn 0.701300 0.599400 0.385800
vn 0.796500 0.557700 0.233500
vn 0.694500 0.664500 0.276000
vn -0.635100 -0.722100 -0.274200
vn -0.838400 -0.510800 -0.190100
s off
f 7/1/1 5/2/1 4/3/1 2/4/1
f 3/5/2 7/1/2 2/6/2 6/7/2
f 4/3/3 8/8/3 12/9/3 10/10/3
f 1/11/4 3/5/4 6/7/4 8/12/4
f 1/13/5 5/14/5 7/15/5 3/16/5
f 5/2/6 1/17/6 8/8/6 4/3/6
f 11/18/7 9/19/7 13/20/7 15/21/7
f 2/4/8 4/3/8 10/10/8 9/22/8
f 8/12/9 6/7/9 11/18/9 12/23/9
f 6/7/10 2/6/10 9/19/10 11/18/10
f 12/23/11 11/18/11 15/21/11 16/24/11
f 9/22/12 10/10/12 14/25/12 13/26/12
f 10/10/13 12/9/13 16/27/13 14/25/13
f 13/26/14 14/25/14 17/28/14
f 14/25/15 16/27/15 17/28/15
f 15/21/16 13/20/16 17/29/16
f 16/24/17 15/21/17 17/29/17
