# Blender v2.76 (sub 0) OBJ File: 'cesped.blend'
# www.blender.org
o Cube
v -0.245926 0.103528 0.023653
v 0.599873 1.924559 0.628357
v 0.007695 0.091820 0.003250
v 0.420119 1.972563 0.655099
v 0.007646 0.087718 0.041782
v 0.420904 1.983668 0.621532
v 0.261267 0.076009 0.021380
v 0.241001 2.029547 0.654700
v 1.265998 3.723741 0.729173
v 1.098143 3.812608 0.754744
v 1.091004 3.802919 0.721292
v 0.924434 3.893529 0.752882
v 1.958347 4.333293 0.102296
v 1.978684 4.448065 0.015914
v 1.965889 4.429064 -0.008104
v 1.990512 4.550201 -0.086439
v 3.302780 3.797929 -0.135914
vt 0.481260 0.775484
vt 0.276989 0.772259
vt 0.287000 0.643674
vt 0.427905 0.652861
vt 0.622593 0.778881
vt 0.522376 0.613682
vt 0.621813 0.613010
vt 0.146094 0.634481
vt 0.153110 0.508778
vt 0.296772 0.518151
vt 0.757339 0.777953
vt 0.721251 0.612323
vt 0.753771 0.259838
vt 0.753628 0.239032
vt 0.773985 0.218326
vt 0.774129 0.239132
vt 0.086050 0.759802
vt 0.621053 0.451088
vt 0.519670 0.451773
vt 0.543771 0.338391
vt 0.620521 0.337874
vt 0.440434 0.527518
vt 0.722435 0.450387
vt 0.697270 0.337341
vt 0.303604 0.430387
vt 0.412361 0.437478
vt 0.194848 0.423291
vt 0.310755 0.338538
vt 0.619964 0.219387
vn -0.058600 0.320800 -0.945300
vn -0.105200 -0.290400 0.951100
vn 0.023800 0.044600 -0.998700
vn 0.073200 -0.325700 0.942600
vn 0.054300 0.992900 0.105800
vn 0.089600 0.290000 -0.952800
vn 0.142300 0.644300 0.751400
vn -0.111200 0.095600 -0.989200
vn 0.142500 -0.105300 0.984200
vn -0.055100 -0.035000 0.997900
vn 0.376000 0.432900 0.819300
vn -0.327000 -0.480000 -0.814100
vn -0.207300 -0.616000 -0.760000
vn -0.346500 -0.524100 -0.778000
vn -0.386600 -0.630100 -0.673400
vn 0.382600 0.684800 0.620200
vn 0.302600 0.473400 0.827200
s off
f 7/1/1 5/2/1 4/3/1 2/4/1
f 3/5/2 7/1/2 2/6/2 6/7/2
f 4/3/3 8/8/3 12/9/3 10/10/3
f 1/11/4 3/5/4 6/7/4 8/12/4
f 1/13/5 5/14/5 7/15/5 3/16/5
f 5/2/6 1/17/6 8/8/6 4/3/6
f 11/18/7 9/19/7 13/20/7 15/21/7
f 2/4/8 4/3/8 10/10/8 9/22/8
f 8/12/9 6/7/9 11/18/9 12/23/9
f 6/7/10 2/6/10 9/19/10 11/18/10
f 12/23/11 11/18/11 15/21/11 16/24/11
f 9/22/12 10/10/12 14/25/12 13/26/12
f 10/10/13 12/9/13 16/27/13 14/25/13
f 13/26/14 14/25/14 17/28/14
f 14/25/15 16/27/15 17/28/15
f 15/21/16 13/20/16 17/29/16
f 16/24/17 15/21/17 17/29/17
