# Blender v2.76 (sub 0) OBJ File: ''
# www.blender.org
o Circle
v -2.000000 0.177629 -1.000000
v -2.000000 0.000688 -0.707107
v -2.000000 0.000688 0.707107
v -2.000000 0.177629 1.000000
v -2.000000 0.707107 0.707107
v -2.000000 1.000000 0.000000
v -2.000000 0.707107 -0.707107
v -1.377499 0.177629 -0.950929
v -1.268956 0.000688 -0.678890
v -0.744868 0.000688 0.634628
v -0.636325 0.177629 0.906667
v -0.744867 0.707107 0.634628
v -1.006912 1.000000 -0.022131
v -1.268957 0.707107 -0.678890
v -1.377499 0.177629 -0.950929
v -1.268956 0.000688 -0.678890
v -0.744868 0.000688 0.634628
v -0.636325 0.177629 0.906667
v -0.744867 0.707107 0.634628
v -1.006912 1.000000 -0.022131
v -1.268957 0.707107 -0.678890
v -0.997628 0.177629 -1.416585
v -0.790522 0.000688 -1.209478
v 0.209478 0.000688 -0.209478
v 0.416585 0.177629 -0.002372
v 0.209478 0.707107 -0.209479
v -0.290522 1.000000 -0.709478
v -0.790522 0.707107 -1.209478
v -0.997628 0.177629 -1.416585
v -0.790522 0.000688 -1.209478
v 0.209478 0.000688 -0.209478
v 0.416585 0.177629 -0.002372
v 0.209478 0.707107 -0.209479
v -0.290522 1.000000 -0.709478
v -0.790522 0.707107 -1.209478
v -1.000000 0.177629 -1.593792
v -0.707107 0.000688 -1.593792
v 0.707107 0.000688 -1.593792
v 1.000000 0.177629 -1.593792
v 0.707107 0.707107 -1.593792
v 0.000000 1.000000 -1.593792
v -0.707107 0.707107 -1.593792
v -1.000000 0.177629 -1.593792
v -0.707107 0.000688 -1.593792
v 0.707107 0.000688 -1.593792
v 1.000000 0.177629 -1.593792
v 0.707107 0.707107 -1.593792
v 0.000000 1.000000 -1.593792
v -0.707107 0.707107 -1.593792
v -1.131976 0.177629 -1.717763
v -0.924870 0.000688 -1.924870
v 0.075130 0.000688 -2.924870
v 0.282237 0.177629 -3.131977
v 0.075130 0.707107 -2.924870
v -0.424870 1.000000 -2.424870
v -0.924870 0.707107 -1.924870
v -1.131976 0.177629 -1.717763
v -0.924870 0.000688 -1.924870
v 0.075130 0.000688 -2.924870
v 0.282237 0.177629 -3.131977
v 0.075130 0.707107 -2.924870
v -0.424870 1.000000 -2.424870
v -0.924870 0.707107 -1.924870
v -1.259683 0.177629 -2.001946
v -1.241418 0.000688 -2.294270
v -1.153225 0.000688 -3.705730
v -1.134960 0.177629 -3.998054
v -1.153225 0.707107 -3.705730
v -1.197321 1.000000 -3.000000
v -1.241418 0.707107 -2.294270
v -1.259683 0.177629 -2.001946
v -1.241418 0.000688 -2.294270
v -1.153225 0.000688 -3.705730
v -1.134960 0.177629 -3.998054
v -1.153225 0.707107 -3.705730
v -1.197321 1.000000 -3.000000
v -1.241418 0.707107 -2.294270
v -2.197321 0.177629 -2.000000
v -2.197321 0.000687 -2.292893
v -2.197321 0.000687 -3.707107
v -2.197321 0.177629 -4.000000
v -2.197321 0.707107 -3.707107
v -2.197321 1.000000 -3.000000
v -2.197321 0.707107 -2.292893
v -2.197321 0.177629 -2.000000
v -2.197321 0.000687 -2.292893
v -2.197321 0.000687 -3.707107
v -2.197321 0.177629 -4.000000
v -2.197321 0.707106 -3.707107
v -2.197321 1.000000 -3.000000
v -2.197321 0.707106 -2.292893
v -2.463601 0.177629 -2.122722
v -2.663759 0.000687 -2.336551
v -3.630213 0.000687 -3.369009
v -3.830371 0.177629 -3.582838
v -3.630213 0.707106 -3.369009
v -3.146986 1.000000 -2.852780
v -2.663759 0.707106 -2.336551
v -2.463601 0.177629 -2.122722
v -2.663759 0.000687 -2.336551
v -3.630213 0.000687 -3.369009
v -3.830371 0.177629 -3.582838
v -3.630213 0.707106 -3.369009
v -3.146986 1.000000 -2.852780
v -2.663759 0.707106 -2.336551
v -3.138395 0.177629 -1.447499
v -3.348045 0.000687 -1.652031
v -4.360322 0.000687 -2.639601
v -4.569972 0.177629 -2.844133
v -4.360322 0.707106 -2.639601
v -3.854184 1.000000 -2.145816
v -3.348045 0.707106 -1.652032
v -3.138395 0.177629 -1.447499
v -3.348045 0.000687 -1.652032
v -4.360322 0.000687 -2.639601
v -4.569972 0.177629 -2.844133
v -4.360322 0.707106 -2.639601
v -3.854184 0.999999 -2.145816
v -3.348045 0.707106 -1.652032
v -3.000039 0.177629 -1.208000
v -3.292921 0.000687 -1.205409
v -4.707079 0.000687 -1.192897
v -4.999961 0.177629 -1.190306
v -4.707079 0.707106 -1.192897
v -4.000000 1.000000 -1.199153
v -3.292921 0.707106 -1.205409
v -3.000039 0.177629 -1.208000
v -3.292921 0.000687 -1.205409
v -4.707079 0.000687 -1.192897
v -4.999961 0.177629 -1.190306
v -4.707079 0.707106 -1.192897
v -4.000000 0.999999 -1.199153
v -3.292921 0.707106 -1.205409
v -2.723320 0.177629 -1.137533
v -2.930427 0.000687 -0.930426
v -3.930427 0.000687 0.069573
v -4.137534 0.177629 0.276680
v -3.930427 0.707106 0.069573
v -3.430427 1.000000 -0.430427
v -2.930427 0.707106 -0.930426
v -2.723320 0.177629 -1.137533
v -2.930427 0.000687 -0.930427
v -3.930427 0.000687 0.069573
v -4.137534 0.177629 0.276680
v -3.930427 0.707106 0.069573
v -3.430427 0.999999 -0.430427
v -2.930427 0.707106 -0.930426
v -2.605364 0.177629 -1.000000
v -2.605364 0.000687 -0.707107
v -2.605364 0.000687 0.707107
v -2.605364 0.177629 1.000000
v -2.605364 0.707106 0.707107
v -2.605364 0.999999 0.000000
v -2.605364 0.707106 -0.707107
v -2.605364 0.177628 -1.000000
v -2.605364 0.000687 -0.707107
v -2.605364 0.000687 0.707107
v -2.605364 0.177628 1.000000
v -2.605364 0.707106 0.707107
v -2.605364 0.999999 0.000000
v -2.605364 0.707106 -0.707107
v -1.601675 0.177628 -1.000000
v -1.601675 0.000687 -0.707107
v -1.601675 0.000687 0.707107
v -1.601675 0.177629 1.000000
v -1.601675 0.707106 0.707107
v -1.601675 0.999999 0.000000
v -1.601675 0.707106 -0.707107
vt 0.250626 0.495349
vt 0.250626 0.662140
vt 0.049209 0.662140
vt 0.049209 0.495349
vt 0.337129 0.760922
vt 0.395724 0.760922
vt 0.395724 0.967147
vt 0.337129 0.967147
vt 0.335581 0.760433
vt 0.395978 0.760433
vt 0.395978 0.967132
vt 0.335581 0.967132
vt 0.250626 0.328559
vt 0.049209 0.328559
vt 0.250626 0.731228
vt 0.049209 0.731227
vt 0.314590 0.636605
vt 0.314590 0.281328
vt 0.529106 0.281328
vt 0.529106 0.636605
vt 0.250626 0.259471
vt 0.049209 0.259471
vn 0.016500 0.919900 0.391900
vn 0.033300 -0.849900 0.526000
vn 0.030500 -0.844400 -0.534800
vn 0.001400 0.918700 -0.394900
vn 0.055600 0.474400 0.878600
vn 0.000000 1.000000 0.000000
vn 0.050400 0.466100 -0.883300
vn 0.266000 0.919200 0.290200
vn 0.347600 -0.849000 0.398000
vn -0.408900 -0.841800 -0.352300
vn -0.283400 0.917800 -0.278100
vn 0.579600 0.473000 0.663600
vn -0.671800 0.462200 -0.578800
vn 0.387000 0.912200 0.134400
vn 0.514700 -0.836700 0.187000
vn -0.553600 -0.828900 -0.079900
vn -0.394300 0.911600 -0.116200
vn 0.837100 0.454700 0.304100
vn -0.886900 0.443800 -0.128000
vn 0.368100 0.912200 -0.179900
vn 0.495600 -0.836700 -0.233100
vn -0.444500 -0.828000 0.341700
vn -0.359900 0.911500 0.199000
vn 0.805900 0.454700 -0.379100
vn -0.711000 0.442600 0.546500
vn 0.230000 0.912100 -0.339400
vn 0.288500 -0.837800 -0.463500
vn -0.499400 -0.797100 0.339500
vn -0.274900 0.907700 0.317000
vn 0.470300 0.456300 -0.755400
vn -0.756700 0.403600 0.514300
vn 0.000300 0.923800 -0.383000
vn 0.000800 -0.855700 -0.517400
vn 0.000900 -0.855700 0.517500
vn 0.000300 0.923700 0.383000
vn 0.001400 0.483700 -0.875200
vn 0.001500 0.483700 0.875300
vn -0.082300 0.911100 -0.403800
vn -0.131100 -0.836300 -0.532300
vn -0.136900 -0.785900 0.603000
vn 0.030800 0.906200 0.421700
vn -0.213100 0.454200 -0.865000
vn -0.203800 0.391000 0.897600
vn -0.270600 0.923800 -0.270800
vn -0.365500 -0.855900 -0.365900
vn 0.365800 -0.855900 0.365600
vn 0.270700 0.923800 0.270700
vn -0.618500 0.483900 -0.619100
vn 0.618900 0.483900 0.618600
vn -0.405900 0.910100 -0.083500
vn -0.534100 -0.834800 -0.133800
vn 0.612600 -0.771300 -0.172700
vn 0.425600 0.904500 0.027700
vn -0.865300 0.452000 -0.216800
vn 0.892100 0.375400 -0.251600
vn -0.345600 0.910000 0.229000
vn -0.472000 -0.834800 0.283400
vn 0.305400 -0.766400 -0.565100
vn 0.319100 0.903900 -0.285000
vn -0.764700 0.452000 0.459200
vn 0.441600 0.370300 -0.817200
vn -0.182300 0.912100 0.367100
vn -0.235600 -0.836600 0.494600
vn 0.356000 -0.825900 -0.437100
vn 0.203500 0.911300 -0.358000
vn -0.383000 0.454600 0.804100
vn 0.567200 0.439700 -0.696400
vn -0.000000 0.923900 0.382700
vn 0.000000 -0.855900 0.517100
vn 0.000000 -0.855900 -0.517100
vn -0.000000 0.923900 -0.382700
vn -0.000000 0.484000 0.875000
vn -0.000000 0.484000 -0.875000
s off
f 6/1/1 5/2/1 12/3/1 13/4/1
f 4/5/2 3/6/2 10/7/2 11/8/2
f 2/9/3 1/10/3 8/11/3 9/12/3
f 7/13/4 6/1/4 13/4/4 14/14/4
f 5/2/5 4/15/5 11/16/5 12/3/5
f 2/17/6 3/18/6 10/19/6 9/20/6
f 1/21/7 7/13/7 14/14/7 8/22/7
f 20/1/8 19/2/8 26/3/8 27/4/8
f 18/5/9 17/6/9 24/7/9 25/8/9
f 16/9/10 15/10/10 22/11/10 23/12/10
f 21/13/11 20/1/11 27/4/11 28/14/11
f 19/2/12 18/15/12 25/16/12 26/3/12
f 16/17/6 17/18/6 24/19/6 23/20/6
f 15/21/13 21/13/13 28/14/13 22/22/13
f 34/1/14 33/2/14 40/3/14 41/4/14
f 32/5/15 31/6/15 38/7/15 39/8/15
f 30/9/16 29/10/16 36/11/16 37/12/16
f 35/13/17 34/1/17 41/4/17 42/14/17
f 33/2/18 32/15/18 39/16/18 40/3/18
f 30/17/6 31/18/6 38/19/6 37/20/6
f 29/21/19 35/13/19 42/14/19 36/22/19
f 48/1/20 47/2/20 54/3/20 55/4/20
f 46/5/21 45/6/21 52/7/21 53/8/21
f 44/9/22 43/10/22 50/11/22 51/12/22
f 49/13/23 48/1/23 55/4/23 56/14/23
f 47/2/24 46/15/24 53/16/24 54/3/24
f 44/17/6 45/18/6 52/19/6 51/20/6
f 43/21/25 49/13/25 56/14/25 50/22/25
f 62/1/26 61/2/26 68/3/26 69/4/26
f 60/5/27 59/6/27 66/7/27 67/8/27
f 58/9/28 57/10/28 64/11/28 65/12/28
f 63/13/29 62/1/29 69/4/29 70/14/29
f 61/2/30 60/15/30 67/16/30 68/3/30
f 58/17/6 59/18/6 66/19/6 65/20/6
f 57/21/31 63/13/31 70/14/31 64/22/31
f 76/1/32 75/2/32 82/3/32 83/4/32
f 74/5/33 73/6/33 80/7/33 81/8/33
f 72/9/34 71/10/34 78/11/34 79/12/34
f 77/13/35 76/1/35 83/4/35 84/14/35
f 75/2/36 74/15/36 81/16/36 82/3/36
f 72/17/6 73/18/6 80/19/6 79/20/6
f 71/21/37 77/13/37 84/14/37 78/22/37
f 90/1/38 89/2/38 96/3/38 97/4/38
f 88/5/39 87/6/39 94/7/39 95/8/39
f 86/9/40 85/10/40 92/11/40 93/12/40
f 91/13/41 90/1/41 97/4/41 98/14/41
f 89/2/42 88/15/42 95/16/42 96/3/42
f 86/17/6 87/18/6 94/19/6 93/20/6
f 85/21/43 91/13/43 98/14/43 92/22/43
f 104/1/44 103/2/44 110/3/44 111/4/44
f 102/5/45 101/6/45 108/7/45 109/8/45
f 100/9/46 99/10/46 106/11/46 107/12/46
f 105/13/47 104/1/47 111/4/47 112/14/47
f 103/2/48 102/15/48 109/16/48 110/3/48
f 100/17/6 101/18/6 108/19/6 107/20/6
f 99/21/49 105/13/49 112/14/49 106/22/49
f 118/1/50 117/2/50 124/3/50 125/4/50
f 116/5/51 115/6/51 122/7/51 123/8/51
f 114/9/52 113/10/52 120/11/52 121/12/52
f 119/13/53 118/1/53 125/4/53 126/14/53
f 117/2/54 116/15/54 123/16/54 124/3/54
f 114/17/6 115/18/6 122/19/6 121/20/6
f 113/21/55 119/13/55 126/14/55 120/22/55
f 132/1/56 131/2/56 138/3/56 139/4/56
f 130/5/57 129/6/57 136/7/57 137/8/57
f 128/9/58 127/10/58 134/11/58 135/12/58
f 133/13/59 132/1/59 139/4/59 140/14/59
f 131/2/60 130/15/60 137/16/60 138/3/60
f 128/17/6 129/18/6 136/19/6 135/20/6
f 127/21/61 133/13/61 140/14/61 134/22/61
f 146/1/62 145/2/62 152/3/62 153/4/62
f 144/5/63 143/6/63 150/7/63 151/8/63
f 142/9/64 141/10/64 148/11/64 149/12/64
f 147/13/65 146/1/65 153/4/65 154/14/65
f 145/2/66 144/15/66 151/16/66 152/3/66
f 142/17/6 143/18/6 150/19/6 149/20/6
f 141/21/67 147/13/67 154/14/67 148/22/67
f 160/1/68 159/2/68 166/3/68 167/4/68
f 158/5/69 157/6/69 164/7/69 165/8/69
f 156/9/70 155/10/70 162/11/70 163/12/70
f 161/13/71 160/1/71 167/4/71 168/14/71
f 159/2/72 158/15/72 165/16/72 166/3/72
f 156/17/6 157/18/6 164/19/6 163/20/6
f 155/21/73 161/13/73 168/14/73 162/22/73
